<?xml version="1.0" encoding="utf-8"?>
<!-- Svg Vector Icons : http://www.onlinewebfonts.com/icon -->
<!DOCTYPE svg PUBLIC "-//W3C//DTD SVG 1.1//EN" "http://www.w3.org/Graphics/SVG/1.1/DTD/svg11.dtd">
<svg version="1.1" xmlns="http://www.w3.org/2000/svg" xmlns:xlink="http://www.w3.org/1999/xlink" x="0px" y="0px" viewBox="0 0 256 256" enable-background="new 0 0 256 256" xml:space="preserve">
<metadata> Svg Vector Icons : http://www.onlinewebfonts.com/icon </metadata>
<g><g><g><path fill="#000000" d="M202.9,5.3c-4,1.5-32.8,11.7-63.8,22.8c-31,11.2-61.7,22.1-68.2,24.4c-6.4,2.3-11.8,4.3-11.9,4.4c-0.2,0.1,11.4,33.2,15,43.1c0.2,0.5-5.2,0.7-23.4,0.8L27.1,101l-3.6,1.7c-6.6,3.3-11.7,10-13,17.1c-0.4,2-0.5,23.6-0.4,62.2l0.2,59.1l1.3,2.5c1.9,3.8,4,6.1,7.3,7.9l2.9,1.6l80.9,0.2l80.9,0.1l2.8-1.3c4-1.8,6.6-4.3,8.3-7.9l1.5-3.1l0.2-24.4l0.2-24.4h-16.8c-18.6,0-21.2-0.3-25.8-3.3c-5.2-3.4-8.3-8.3-9.2-15c-0.8-5.8-0.3-14.5,1.2-18.4c1.6-4.3,6-8.9,10.4-11l3.4-1.6l18.4-0.2l18.4-0.2v-7.2c-0.1-9.9-1.5-13.4-7-16.6l-2.6-1.5l-16-0.3l-16-0.3l9-3.2l8.9-3.2l7.6,0.2c7.3,0.2,7.7,0.2,11.1,1.9c4.3,2.1,7.6,5.6,9.7,9.9l1.5,3.1l0.3,53.7l0.3,53.7l2.9-2.9c1.8-1.7,3.5-4.3,4.6-6.5l1.7-3.7l0.2-48.5c0.1-47.3,0.1-48.6-1-52.1c-2-6.5-7.1-12.7-13.3-15.9c-1.2-0.6-2-1.1-1.9-1.3c0.1-0.1,10.6-3.9,23.3-8.5c12.8-4.6,23.8-8.6,24.7-8.8c0.8-0.3,1.5-0.8,1.5-1.1c0-0.6-25-71.2-25.4-71.8c-0.1-0.1-1.3,0.2-2.6,0.7l-2.5,0.8L214,9.2c-0.8-2.3-1.7-4.7-1.9-5.5c-0.3-0.7-0.8-1.1-1.1-1.1C210.6,2.7,207,3.9,202.9,5.3z M209.1,12.8c0.5,1.4,0.8,2.6,0.7,2.6c-0.1,0.1-30.6,11-67.8,24.3C104.8,52.9,74.1,64,73.8,64.2c-0.4,0.2,2.7,9.5,8.5,25.7c5,13.9,9.2,25.7,9.3,26.2c0.3,0.9-0.1,1-2.5,1c-3.1,0-2.4,1.1-6.3-10.1c-1-3-5.2-14.7-9.3-25.9s-7.2-20.5-7-20.6C70,59,206.7,10.2,207.4,10.2C208,10.2,208.5,11,209.1,12.8z M166.1,48.6C177.7,51.7,186,62.3,186,74c0,11.5-7,21.3-17.8,25.1c-2.7,0.9-4.3,1.1-9.5,0.9c-6-0.2-6.5-0.3-10.4-2.2c-10.5-5.2-16.4-16.3-14.7-27.5C136,55.1,151.3,44.8,166.1,48.6z M79,113.8l1.1,3.3H54.5c-23.2,0-25.8-0.1-26.7-0.9c-1.2-1.1-1.3-3.3-0.1-4.6c0.8-0.9,2.3-1,25.6-1H78L79,113.8z"/><path fill="#000000" d="M150.9,53.4c-0.7,1.1-0.8,1.6-0.2,3c0.6,1.6,0.5,1.9-1.1,3.7c-2.2,2.5-2.8,4-2.8,7.2c0,3.5,2,6.8,5.1,8.3c1.9,0.9,3.4,1.1,7.7,1.1c5.2,0,5.3,0.1,7,1.6c1.4,1.4,1.6,2,1.3,3.4c-0.5,2.3-2.4,4.1-5.1,4.8c-2.5,0.5-4.1,0.1-6.6-1.7c-1.3-0.9-1.8-1-2.7-0.5c-1.6,0.9-1.9,2.3-0.8,3.9c1.6,2.1,4.1,3.3,7.7,3.7c2.2,0.2,3.3,0.5,3.3,1c0,0.4,0.5,1.4,1.3,2.2c2.3,2.7,5.2,0,3.7-3.4c-0.6-1.3-0.5-1.6,0.9-3.1c4.4-4.6,4.5-10.1,0.3-14.1c-2.3-2.2-4.4-2.7-9.7-2.7c-5,0.1-7.6-0.7-8.2-2.4c-1.1-3.1,0.6-6.4,3.9-7.4c3-0.8,4.1-0.7,6.3,0.8c2.3,1.5,3.7,1.7,4.7,0.6c2-2.5-2.3-6.4-7.5-6.8c-3-0.2-3.2-0.3-4.2-2.2C153.9,52,152.1,51.6,150.9,53.4z"/><path fill="#000000" d="M160.9,149.7c-4,1.3-6.9,3.8-8.7,7.7c-0.9,2.1-1.1,3.6-1.1,10c0,8.1,0.4,9.7,3,13.2c0.8,1,2.8,2.6,4.5,3.4l3.1,1.5l17.3,0.2l17.3,0.2v-18.3v-18.3l-17,0.1C170,149.3,161.7,149.5,160.9,149.7z M178.1,162.3c2.9,2.8,3.1,7.1,0.3,9.9c-4.3,4.3-11.5,1-11.5-5.2c0-1.7,0.4-2.5,2.2-4.3c2.1-2.1,2.3-2.2,4.9-2C175.9,161,177.2,161.5,178.1,162.3z"/></g></g></g>
</svg>